<?xml version="1.0" encoding="UTF-8"?>
<!DOCTYPE svg PUBLIC "-//W3C//DTD SVG 1.1//EN" "http://www.w3.org/Graphics/SVG/1.1/DTD/svg11.dtd">
<!-- Creator: CorelDRAW -->
<svg xmlns="http://www.w3.org/2000/svg" xml:space="preserve" width="6.82666in" height="6.82666in" style="shape-rendering:geometricPrecision; text-rendering:geometricPrecision; image-rendering:optimizeQuality; fill-rule:evenodd; clip-rule:evenodd"
viewBox="0 0 6.82666 6.82666"
 xmlns:xlink="http://www.w3.org/1999/xlink">
 <defs>
  <style type="text/css">
   <![CDATA[
    .fil14 {fill:none}
    .fil3 {fill:#1E1E1E}
    .fil4 {fill:#2F2F2F}
    .fil7 {fill:#414141}
    .fil2 {fill:#6C6C6C}
    .fil5 {fill:#BCBCBC}
    .fil6 {fill:#F0F0F0}
    .fil8 {fill:white}
    .fil0 {fill:#202020;fill-rule:nonzero}
    .fil1 {fill:#282929;fill-rule:nonzero}
    .fil9 {fill:#414141;fill-rule:nonzero}
    .fil12 {fill:#CDCDCD;fill-rule:nonzero}
    .fil10 {fill:#E9E9EA;fill-rule:nonzero}
    .fil13 {fill:#EAEAEA;fill-rule:nonzero}
    .fil11 {fill:white;fill-rule:nonzero}
   ]]>
  </style>
 </defs>
 <g id="Layer_x0020_1">
  <metadata id="CorelCorpID_0Corel-Layer"/>
  <path class="fil0" d="M2.1376 2.50797l-0.588799 0c-0.0589094,0 -0.106669,-0.0477598 -0.106669,-0.106669l0 -0.392535c0,-0.0589094 0.0477598,-0.106669 0.106669,-0.106669l0.588799 0c0.0589094,0 0.106669,0.0477598 0.106669,0.106669l0 0.392535c0,0.0589094 -0.0477598,0.106669 -0.106669,0.106669z"/>
  <path class="fil1" d="M3.9872 2.73433l-1.14681 0c-0.0541457,0.00053937 -0.100929,-0.040063 -0.106965,-0.0950276l0.106031 -0.0116417 -0.105835 0.011252 -0.105819 -0.963602c-0.00110236,-0.00615354 -0.0016811,-0.0124961 -0.0016811,-0.0189685 0,-0.0589094 0.0477598,-0.106669 0.106669,-0.106669l1.36091 0c0.00390157,0 0.00783465,0.000200787 0.0117992,0.000637795 0.0585591,0.00642913 0.100819,0.0591142 0.0943898,0.117673l-0.00023622 -2.75591e-005 -0.105898 0.964311c-0.00241339,0.0567717 -0.0491969,0.102063 -0.106563,0.102063z"/>
  <path class="fil2" d="M1.46293 2.32326l0.963114 0c0.0273543,0 0.0522953,0.0103031 0.0711772,0.0272323l0.225591 0.168941 1.39975 0 0.210862 -0.171917 -0.000212598 -0.000259843c0.019815,-0.0161575 0.0436811,-0.0240079 0.0674016,-0.0239961l0.00057874 0 0.962535 0c0.113776,0 0.217138,0.0464724 0.292,0.121335 0.0748622,0.0748583 0.121335,0.178217 0.121335,0.291996l0 0.343106 0.0896024 0c0.0589094,0 0.106669,0.0477598 0.106669,0.106669l0 1.86454c0,0.0589094 -0.0477598,0.106669 -0.106669,0.106669l-0.0896024 0 0 0.295492c0,0.113776 -0.0464724,0.217138 -0.121335,0.292 -0.0748622,0.0748622 -0.178224,0.121335 -0.292,0.121335l-3.9008 0c-0.113776,0 -0.217138,-0.0464724 -0.292,-0.121335 -0.0748622,-0.0748622 -0.121335,-0.178224 -0.121335,-0.292l0 -0.295492 -0.0895984 0c-0.0589094,0 -0.106669,-0.0477598 -0.106669,-0.106669l0 -1.86454c0,-0.0589094 0.0477598,-0.106669 0.106669,-0.106669l0.0895984 0 0 -0.343106c0,-0.11378 0.0464724,-0.217138 0.121335,-0.291996 0.0748622,-0.0748622 0.178224,-0.121335 0.292,-0.121335z"/>
  <polygon class="fil3" points="5.97333,3.40541 5.97333,4.78425 0.853327,4.78425 0.853327,3.40541 "/>
  <g id="_314532400">
   <path id="_314532376" class="fil4" d="M3.41333 2.81446c0.353555,0 0.673654,0.143319 0.90535,0.37502 0.231705,0.231705 0.375024,0.551807 0.375024,0.90535 0,0.353551 -0.143323,0.67365 -0.375024,0.90535 -0.231697,0.231701 -0.551795,0.37502 -0.90535,0.37502 -0.353551,0 -0.67365,-0.143319 -0.905346,-0.37502 -0.231701,-0.231701 -0.375024,-0.551799 -0.375024,-0.90535 0,-0.353543 0.143319,-0.673646 0.375024,-0.90535 0.231697,-0.231701 0.551795,-0.37502 0.905346,-0.37502z"/>
   <path id="_314532544" class="fil5" d="M4.17941 3.32875c-0.196039,-0.196043 -0.466894,-0.317311 -0.766079,-0.317311 -0.299181,0 -0.570035,0.121268 -0.766075,0.317311 -0.196047,0.196039 -0.317311,0.466902 -0.317311,0.766079 0,0.299181 0.121264,0.570039 0.317311,0.766079 0.196039,0.196043 0.466894,0.317311 0.766075,0.317311 0.299185,0 0.570039,-0.121268 0.766079,-0.317311 0.196047,-0.196039 0.317311,-0.466898 0.317311,-0.766079 0,-0.299177 -0.121264,-0.570039 -0.317311,-0.766079z"/>
   <path id="_314532856" class="fil6" d="M3.75075 3.52822c0.0909803,0.108972 -0.344063,0.0268189 -0.610441,0.249217 -0.266378,0.222394 -0.263217,0.665118 -0.354197,0.556146 -0.0909764,-0.108976 -0.113524,-0.574913 0.152854,-0.797307 0.266378,-0.222394 0.720807,-0.117031 0.811783,-0.00805512z"/>
  </g>
  <path class="fil7" d="M5.14469 2.73074c-0.0114291,-0.0114291 -0.0272362,-0.0185039 -0.0446929,-0.0185039 -0.0174567,0 -0.0332638,0.0070748 -0.0446929,0.0185039 -0.0114291,0.0114291 -0.0185039,0.0272362 -0.0185039,0.0446929 0,0.0174567 0.0070748,0.0332638 0.0185039,0.0446929 0.0114331,0.0114331 0.0272362,0.0185079 0.0446929,0.0185079 0.0174567,0 0.0332638,-0.0070748 0.0446969,-0.0185079 0.0114291,-0.0114291 0.0185039,-0.0272362 0.0185039,-0.0446929 0,-0.0174567 -0.0070748,-0.0332598 -0.0185079,-0.0446929z"/>
  <path class="fil8" d="M5.1 2.60557c0.0469016,0 0.089374,0.0190197 0.12011,0.0497559 0.0307441,0.0307441 0.0497598,0.0732087 0.0497598,0.12011 0,0.0469016 -0.0190197,0.089374 -0.0497559,0.12011 -0.0307441,0.0307441 -0.0732126,0.0497598 -0.120114,0.0497598 -0.0469016,0 -0.0893661,-0.0190157 -0.12011,-0.0497598 -0.0307362,-0.0307362 -0.0497559,-0.0732087 -0.0497559,-0.12011 0,-0.0469016 0.0190197,-0.0893661 0.0497559,-0.12011 0.0307441,-0.0307362 0.0732165,-0.0497559 0.12011,-0.0497559z"/>
  <path class="fil0" d="M4.09698 1.76302l-1.36774 0c-0.0589094,0 -0.106669,-0.0477598 -0.106669,-0.106669l0 -0.294709c0,-0.110488 0.045126,-0.210854 0.117819,-0.283555 0.0727008,-0.0726929 0.173067,-0.117819 0.283555,-0.117819l0.778331 0c0.110488,0 0.210854,0.045126 0.283555,0.117819 0.0726929,0.0727008 0.117819,0.173067 0.117819,0.283555l0 0.294709c0,0.0589094 -0.0477598,0.106669 -0.106669,0.106669z"/>
  <path class="fil9" d="M2.83591 1.54968l1.1544 0 0 -0.188039c0,-0.0515984 -0.021189,-0.0985906 -0.055315,-0.13272 -0.0341299,-0.034126 -0.081122,-0.055315 -0.13272,-0.055315l-0.778331 0c-0.0515984,0 -0.0985906,0.021189 -0.13272,0.055315 -0.034126,0.0341299 -0.055315,0.081122 -0.055315,0.13272l0 0.188039z"/>
  <path class="fil10" d="M2.83591 1.54968l0.16965 0 0 -0.375169c-0.0443189,0.00437795 -0.0843071,0.0243858 -0.114335,0.0544094 -0.034126,0.0341299 -0.055315,0.081122 -0.055315,0.13272l0 0.188039z"/>
  <path class="fil11" d="M3.00556 1.54968l0.278331 0 0 -0.376075 -0.259945 0c-0.00620079,0 -0.0123346,0.000311024 -0.0183858,0.000905512l0 0.375169z"/>
  <polygon class="fil10" points="3.28389,1.54968 3.59403,1.54968 3.59403,1.1736 3.28389,1.1736 "/>
  <polygon class="fil12" points="3.59403,1.54968 3.76103,1.54968 3.76103,1.1736 3.59403,1.1736 "/>
  <path class="fil13" d="M3.76103 1.54968l0.229287 0 0 -0.188039c0,-0.0515984 -0.021189,-0.0985906 -0.055315,-0.13272 -0.0341299,-0.034126 -0.081122,-0.055315 -0.13272,-0.055315l-0.041252 0 0 0.376075z"/>
 </g>
 <rect class="fil14" width="6.82666" height="6.82666"/>
</svg>
